<?xml version="1.0" standalone="no"?><!DOCTYPE svg PUBLIC "-//W3C//DTD SVG 1.1//EN" "http://www.w3.org/Graphics/SVG/1.1/DTD/svg11.dtd">
<svg class="icon" width="32px" height="32.00px" viewBox="0 0 1024 1024" version="1.1" xmlns="http://www.w3.org/2000/svg"><path fill="currentColor" d="M572.330667 597.333333H298.666667v-85.333333h273.664l-77.994667-77.994667L554.666667 373.632 735.701333 554.666667l-60.373333 60.330666L554.666667 735.701333l-60.330667-60.373333L572.330667 597.333333zM533.333333 263.509333H853.333333a85.333333 85.333333 0 0 1 85.333334 85.333334V810.666667a85.333333 85.333333 0 0 1-85.333334 85.333333H170.666667a85.333333 85.333333 0 0 1-85.333334-85.333333V213.333333a85.333333 85.333333 0 0 1 85.333334-85.333333h241.493333a85.333333 85.333333 0 0 1 76.117333 46.72L533.333333 263.509333z m0 85.333334a85.333333 85.333333 0 0 1-76.117333-46.72L412.202667 213.333333H170.666667v597.333334h682.666666V348.842667h-320z" /></svg>
