<?xml version="1.0" standalone="no"?><!DOCTYPE svg PUBLIC "-//W3C//DTD SVG 1.1//EN" "http://www.w3.org/Graphics/SVG/1.1/DTD/svg11.dtd"><svg class="icon" width="32px" height="32.00px" viewBox="0 0 1024 1024" version="1.1" xmlns="http://www.w3.org/2000/svg"><path d="M810.666667 256H469.333333l-85.333333-85.333333H170.666667c-46.933333 0-85.333333 38.4-85.333334 85.333333v512c0 46.933333 38.4 85.333333 85.333334 85.333333h661.333333c36.266667 0 64-27.733333 64-64V341.333333c0-46.933333-38.4-85.333333-85.333333-85.333333z" fill="#FFA000" /><path d="M900.266667 384H326.4c-40.533333 0-76.8 29.866667-83.2 70.4L170.666667 853.333333h676.266666c40.533333 0 76.8-29.866667 83.2-70.4l53.333334-298.666666c10.666667-51.2-29.866667-100.266667-83.2-100.266667z" fill="#FFCA28" /></svg>